<svg width="19" height="18" viewBox="0 0 19 18" fill="none" xmlns="http://www.w3.org/2000/svg">
<g id="bx:bxs-bell-ring">
<path id="Vector" d="M13.3667 10.7456V11.074L13.5975 11.3077L14.7 12.424V12.925H4.3V12.424L5.40252 11.3077L5.63333 11.074V10.7456V7.65C5.63333 5.84304 6.8448 4.32496 8.4781 3.86978L8.86246 3.76267L9.00812 3.39119C9.08917 3.18451 9.28086 3.05 9.5 3.05C9.71913 3.05 9.91083 3.18451 9.99188 3.39119L10.1375 3.76263L10.5218 3.86976C12.1546 4.32496 13.3667 5.84316 13.3667 7.65V10.7456ZM14.7 12.3738V12.375C14.7 12.3746 14.7 12.3742 14.7 12.3738ZM4.3 12.3739C4.3 12.3742 4.3 12.3746 4.3 12.375L4.3 12.3739Z" stroke="#D3D3D3" stroke-width="1.6"/>
</g>
</svg>
